<?xml version="1.0" standalone="no"?>
<!DOCTYPE svg PUBLIC "-//W3C//DTD SVG 20010904//EN"
 "http://www.w3.org/TR/2001/REC-SVG-20010904/DTD/svg10.dtd">
<svg version="1.0" xmlns="http://www.w3.org/2000/svg"
 width="250.000000pt" height="250.000000pt" viewBox="0 0 250.000000 250.000000"
 preserveAspectRatio="xMidYMid meet">
<metadata>
Created by potrace 1.11, written by Peter Selinger 2001-2013
</metadata>
<g transform="translate(0.000000,250.000000) scale(0.100000,-0.100000)"
fill="#000000" stroke="none">
<path d="M1220 2183 c-100 -37 -799 -285 -811 -288 -8 -2 -32 -10 -53 -19
l-38 -16 7 -62 c3 -35 8 -74 10 -88 4 -27 12 -100 20 -170 3 -25 7 -61 9 -80
3 -19 8 -60 11 -90 3 -30 7 -68 9 -85 2 -16 7 -59 11 -95 3 -36 8 -72 10 -80
2 -8 7 -49 10 -90 3 -41 8 -82 10 -90 3 -8 7 -42 10 -75 3 -33 7 -76 10 -95 2
-19 7 -57 10 -85 l6 -50 107 -57 c59 -32 132 -72 162 -89 30 -17 160 -89 288
-160 l233 -130 32 19 c18 11 59 34 92 52 33 18 74 41 90 50 17 9 102 57 190
105 88 49 174 96 190 105 25 14 186 102 192 104 2 1 11 66 18 136 3 30 8 66
10 80 2 14 7 48 9 75 12 111 17 163 26 235 5 41 12 100 15 130 4 30 8 66 10
80 2 14 6 50 9 80 3 30 8 76 11 101 3 26 7 64 10 85 2 22 7 66 11 99 4 33 8
78 8 100 l1 40 -455 162 c-250 89 -462 162 -470 162 -8 0 -22 -3 -30 -6z"/>
</g>
</svg>
