<svg class="site-logo" width="125px" viewBox="0 0 506 150" version="1.1" xmlns="http://www.w3.org/2000/svg" xmlns:xlink="http://www.w3.org/1999/xlink">
    <g stroke="none" stroke-width="1" fill="none" fill-rule="evenodd">
        <g id="Angular Logo">
            <g transform="translate(7.000000, 5.000000)">
                <path d="M63.5346,0.0002 L-0.0004,22.6812 L9.6596,106.8882 L63.5346,136.7842 L118.3786,106.4852 L128.8876,22.2792 L63.5346,0.0002 Z M63.5346,15.2512 L105.1226,103.7832 L91.3386,103.7832 L82.5836,83.7842 L63.5346,83.7842 L46.8446,83.7842 L38.8496,103.7362 L23.8346,103.9872 L63.5346,15.2512 Z" id="Fill-1" fill="#FFFFFF"></path>
                <polygon id="Fill-2" fill="#FFFFFF" points="52.0919 71.784 63.5339 71.784 77.4439 71.784 63.5339 43.696"></polygon>
                <path d="M63.5346,0.0002 L-0.0004,22.6812 L9.6596,106.8882 L63.5346,136.7842 L118.3786,106.4852 L128.8876,22.2792 L63.5346,0.0002 Z M63.5346,15.2512 L105.1226,103.7832 L91.3386,103.7832 L82.5836,83.7842 L63.5346,83.7842 L46.8446,83.7842 L38.8496,103.7362 L23.8346,103.9872 L63.5346,15.2512 Z" id="Fill-3" fill="#FFFFFF"></path>
                <polygon id="Fill-4" fill="#FFFFFF" points="52.0919 71.784 63.5339 71.784 77.4439 71.784 63.5339 43.696"></polygon>
                <polygon id="Fill-5" fill="#F2F2F2" points="63.5342 43.6959 63.5342 71.7839 77.4442 71.7839"></polygon>
                <polygon id="Fill-6" fill="#F2F2F2" points="63.5346 0.0002 63.5346 15.2512 105.1226 103.7832 91.3386 103.7832 82.5836 83.7842 63.5346 83.7842 63.5346 136.7842 118.3786 106.4852 128.8876 22.2792"></polygon>
                <polygon id="Fill-7" fill="#FFFFFF" points="52.0919 71.784 63.5339 71.784 63.5339 43.696"></polygon>
                <polygon id="Fill-8" fill="#FFFFFF" points="63.5346 0.0002 -0.0004 22.6812 9.6596 106.8882 63.5346 136.7842 63.5346 83.7842 46.8446 83.7842 38.8496 103.7362 23.8346 103.9872 63.5346 15.2512"></polygon>
                <g id="Group-21" transform="translate(151.000000, 41.784000)">
                    <path id="Fill-9" fill="#CBCBCB"></path>
                    <path id="Fill-11" fill="#FFFFFF"></path>
                    <path id="Fill-13" fill="#FFFFFF"></path>
                    <path id="Fill-15" fill="#FFFFFF"></path>
                    <path id="Fill-17" fill="#FFFFFF"></path>
                    <path id="Fill-19" fill="#FFFFFF"></path>
                </g>
                <polygon id="Fill-22" fill="#FFFFFF" points="147.6777 101.3206 147.6777 39.7866 155.6367 39.7866 193.2887 89.3556 193.2887 39.7866 200.8197 39.7866 200.8197 101.3206 192.8607 101.3206 155.2057 51.3156 155.2057 101.3206"></polygon>
                <g id="Group-33" transform="translate(212.000000, 30.784000)" fill="#FFFFFF">
                    <path d="M49.9213,68.1254 C44.9603,70.0214 39.6103,70.9664 33.8713,70.9664 C11.5843,70.9664 0.4373,60.2814 0.4373,38.9074 C0.4373,18.6834 11.1953,8.5694 32.7113,8.5694 C38.8783,8.5694 44.6173,9.4324 49.9213,11.1554 L49.9213,18.0394 C44.6173,16.0314 39.1633,15.0264 33.5703,15.0264 C16.7923,15.0264 8.4003,22.9884 8.4003,38.9074 C8.4003,55.9754 16.6613,64.5144 33.1853,64.5144 C35.8213,64.5144 38.7513,64.1704 41.9653,63.4774 L41.9653,42.5654 L49.9213,42.5654 L49.9213,68.1254 Z" id="Fill-23"></path>
                    <path d="M62.6159,46.7822 L62.6159,9.0002 L70.5719,9.0002 L70.5719,46.7822 C70.5719,58.6002 76.4529,64.5122 88.2169,64.5122 C99.9769,64.5122 105.8599,58.6002 105.8599,46.7822 L105.8599,9.0002 L113.8199,9.0002 L113.8199,46.7822 C113.8199,62.9092 105.2849,70.9652 88.2169,70.9652 C71.1499,70.9652 62.6159,62.9092 62.6159,46.7822" id="Fill-25"></path>
                    <polygon id="Fill-27" points="135.9801 8.9995 135.9801 64.0805 168.1691 64.0805 168.1691 70.5335 128.0241 70.5335 128.0241 8.9995"></polygon>
                    <polygon id="Fill-29" points="179.6577 70.5357 171.3977 70.5357 201.9917 0.8807 232.5827 70.5357 223.7617 70.5357 215.8017 51.1697 195.4497 51.1697 197.6457 44.7177 213.1337 44.7177 201.6467 16.8307"></polygon>
                    <path d="M240.9755,70.5366 L240.9755,9.0026 L267.2255,9.0026 C278.9305,9.0026 284.7785,13.9216 284.7785,23.7616 C284.7785,31.7636 279.0615,37.6926 267.6135,41.5316 L288.7405,70.5366 L278.2365,70.5366 L258.6635,42.8686 L258.6635,37.6616 C270.4235,35.7916 276.3065,31.2786 276.3065,24.1046 C276.3065,18.4276 273.0335,15.5866 266.4915,15.5866 L248.9345,15.5866 L248.9345,70.5366 L240.9755,70.5366 Z" id="Fill-31"></path>
                </g>
            </g>
        </g>
    </g>
</svg>